<?xml version="1.0" encoding="utf-8"?>
<!-- Generator: Adobe Illustrator 18.0.0, SVG Export Plug-In . SVG Version: 6.00 Build 0)  -->
<!DOCTYPE svg PUBLIC "-//W3C//DTD SVG 1.1//EN" "http://www.w3.org/Graphics/SVG/1.1/DTD/svg11.dtd">
<svg version="1.1" id="Layer_1" xmlns="http://www.w3.org/2000/svg" xmlns:xlink="http://www.w3.org/1999/xlink" x="0px" y="0px"
	 viewBox="0 0 697.3 160" enable-background="new 0 0 697.3 160" xml:space="preserve">
<g>
	<path fill="#C7C8CA" d="M98,59.9H83.7l3.8-16.3c0.9-3.6,1.2-5.2,1.2-6.9c0-5.3-3.6-6.4-6.2-6.4c-5.5,0-6.9,4.8-7.7,7.6
		c-2.4,8.6-3.4,13.2-3.4,17c0,4.8,0.7,6,8.4,19.6c6.7,12.2,8.6,15.6,8.6,23.7c0,7.9-3.3,21.8-5.3,27.5c-2.1,5.2-6.9,16.5-23.9,16.5
		c-3.6,0-20.3,0-20.3-17.9c0-3.4,0.7-7,1.7-11.5l3.6-16.2h14.4l-4.1,18.2c-0.5,2.2-1.2,5.2-1.2,7.4c0,2.6,0.7,4.3,1.7,5.5
		c1.4,1.4,3.3,1.9,5.3,1.9c4.8,0,7-3.4,8.8-10c0.3-1.4,3.3-13.6,3.3-19.8c0-5-0.7-6.2-8.6-19.6c-4.8-8.1-8.1-13.6-8.1-21.5
		c0-2.7,1.7-21,7-29.9c6.4-10.8,16.7-11.2,21.3-11.2c12.4,0,19.1,5.8,19.1,16c0,1.5-0.2,4.3-1.4,9.3L98,59.9z"/>
	<path fill="#C7C8CA" d="M130.2,126.2l-4.3,14.4H84.5l28-121.3h16l-24.6,106.9H130.2z"/>
	<path fill="#C7C8CA" d="M158.5,85.2l-9.5,40.7h26.3l-3.4,14.8h-42.4l28-121.3h39l-3.3,14.3h-22.9l-8.6,37.1h21l-3.4,14.4H158.5z"/>
	<path fill="#C7C8CA" d="M204.2,85.2l-9.5,40.7H221l-3.4,14.8h-42.4l28-121.3h39l-3.3,14.3h-22.9l-8.6,37.1h21L225,85.2H204.2z"/>
	<path fill="#C7C8CA" d="M264.8,77.3l9.5,63.4h-16.5l-7.4-58.6l-13.6,58.6H221l28-121.3h16l-13.4,52.9l30.2-52.9h15.8L264.8,77.3z"
		/>
	<path d="M346.9,140.7h-14.8l22.7-98.8l-36.3,98.8h-12.7l9.3-98.8l-22.9,98.8h-14.8l29.4-121.3h20.3l-7,88.1l33-88.1h21L346.9,140.7
		z"/>
	<path d="M374.7,117.8l-8.9,22.9h-15.5l48.6-121.3h19.8l-12.4,121.3h-15.5l3.1-22.9H374.7z M395.8,103.9l7.7-63.2L380,103.9H395.8z"
		/>
	<path d="M427.6,54.1c4.6-19.8,8.6-36.3,29.6-36.3c12.9,0,21.7,5.8,21.7,19.1c0,4.5-0.3,5.7-4.6,23.7h-14.9l2.1-8.9
		c2.4-9.6,2.6-10.7,2.6-13.2c0-6.4-4.5-7.9-7.2-7.9c-7.2,0-8.8,6-12.5,21.7l-13.6,56.7c-1.2,5-2.1,8.9-2.1,11.9
		c0,6.7,4.5,7.9,7.2,7.9c6,0,7.9-5,8.8-6.7c0.5-1.7,2.6-8.9,4-14.1l3.6-13.6h15.6l-2.6,10.5c-4.1,17.7-5.3,23-9.1,28.2
		c-5.2,7-13.1,9.3-21.1,9.3c-14.9,0-22-8.2-22-19.6c0-6,1.9-14.9,3.8-22.9L427.6,54.1z"/>
	<path d="M506.8,84.5h-16.5l-13.1,56.2h-15.8l28-121.3h15.8l-12,51.2h16.7l12-51.2h15.6l-28,121.3h-16L506.8,84.5z"/>
	<path d="M558.5,19.3l-28,121.3h-15.8l28-121.3H558.5z"/>
	<path d="M616.2,19.3l-28.9,121.3h-16.5l-1.4-90.6l-18,90.6h-15.3l28.2-121.3h16.3l1.7,90.2l19.2-90.2H616.2z"/>
	<path d="M620.5,85.2l-9.5,40.7h26.3l-3.4,14.8h-42.4l28-121.3h39l-3.3,14.3h-22.9l-8.6,37.1h21l-3.4,14.4H620.5z"/>
</g>
</svg>
