<?xml version="1.0" encoding="utf-8"?>
<!-- Generator: Adobe Illustrator 18.1.1, SVG Export Plug-In . SVG Version: 6.00 Build 0)  -->
<svg version="1.1" id="Layer_1" xmlns="http://www.w3.org/2000/svg" xmlns:xlink="http://www.w3.org/1999/xlink" x="0px" y="0px"
	 viewBox="0 0 607 84" enable-background="new 0 0 607 84" xml:space="preserve">
<g>
	<path fill="#818181" d="M14.1,59c2.7,4.1,6.6,6.5,12.1,6.5c6.5,0,11.5-4.1,11.5-10.5c0-3.9-2.2-6.5-5.6-8.4l-5.7-3.4
		c-3.5-2.1-6.7-5-6.7-9.6c0-5.7,4.8-10.7,11.9-10.7c5.2,0,9.2,2.6,11.4,5.7l-1.4,1.2c-2.2-2.8-5.7-5.2-10.3-5.2
		c-5.8,0-9.6,4.5-9.6,8.8c0,4.1,2.7,6.5,5.7,8.1l5.6,3.2c4,2.3,6.7,5.3,6.7,9.9c0,7.5-5.9,12.4-13.7,12.4c-6.1,0-10.6-2.6-13.4-7.1
		L14.1,59z"/>
	<path fill="#818181" d="M69.8,23.7h1.9l-8.1,41H83l-0.4,1.7H61.3L69.8,23.7z"/>
	<path fill="#818181" d="M107.5,44.5l-4.1,20.2h20.8l-0.4,1.7h-22.6l8.5-42.6h22.1l-0.4,1.7h-20.2l-3.5,17.4L107.5,44.5z"/>
	<path fill="#818181" d="M152.9,44.5l-4.1,20.2h20.8l-0.4,1.7h-22.6l8.5-42.6h22.1l-0.4,1.7h-20.2l-3.5,17.4L152.9,44.5z"/>
	<path fill="#818181" d="M197.8,23.7h1.9L195,47.6h0.1l25.6-23.9h2.5l-16.3,15.5l9.8,27.1h-2.1l-9.3-25.8l-10.9,10.1l-3.2,15.8h-1.9
		L197.8,23.7z"/>
</g>
<g>
	<path fill="#818181" d="M261.5,23.7h3.2l4.3,25.7l1.7,9.7h0.3l5-9.7l14.2-25.7h3.2l-8.5,42.6H283l5.9-29.7
		c0.8-3.5,1.7-7.8,2.5-11.1h-0.3l-5,9.2l-14.6,26.7h-2.2l-4.7-26.7l-1.6-9.2h-0.3c-0.6,3.5-1.3,7.6-1.9,11.1l-5.9,29.7H253
		L261.5,23.7z"/>
	<path fill="#818181" d="M333.1,49.3l-1-8.5c-0.5-4.8-1.2-9.7-1.7-14.9h-0.3c-2.6,5.3-5.2,9.8-7.9,14.9l-4.7,8.5l-0.9,1.7l-8.4,15.4
		h-2.2l23.6-42.6h1.9l5.4,42.6h-1.9l-1.9-15.4L333.1,49.3z"/>
	<path fill="#818181" d="M375.7,22.9c4.8,0,7.9,2.8,9.8,5.9l-1.6,1c-1.7-3-4.4-5.3-8.4-5.3c-12.4,0-19.4,14.5-19.4,25.5
		c0,8.7,3.7,15.4,12.4,15.4c4.1,0,7.2-1.6,10.5-4.3l1.2,1.3c-3.6,3-7.1,4.7-11.8,4.7c-9.6,0-14.2-7.2-14.2-16.7
		C354.3,38,362.2,22.9,375.7,22.9z"/>
	<path fill="#818181" d="M405.1,23.7h1.9l-3.9,19.1h23l3.9-19.1h1.9l-8.5,42.6h-1.9l4.4-21.8h-23l-4.4,21.8h-1.9L405.1,23.7z"/>
	<path fill="#818181" d="M457.9,23.7h1.9l-8.5,42.6h-1.9L457.9,23.7z"/>
	<path fill="#818181" d="M484.8,23.7h2.2l11.9,31.4l3.1,8.5h0.3c0.6-4,1.3-8.1,2.1-12.1l5.6-27.8h1.9l-8.5,42.6h-2.1l-11.8-31.3
		l-3.2-8.9h-0.3c-0.6,4.1-1.4,8.1-2.2,12l-5.6,28.2h-1.9L484.8,23.7z"/>
	<path fill="#818181" d="M530.4,44.5l-4.1,20.2H547l-0.4,1.7H524l8.5-42.6h22.1l-0.4,1.7h-20.2l-3.5,17.4L530.4,44.5z"/>
</g>
</svg>
